<svg width="20" height="22" viewBox="0 0 20 22" fill="none" xmlns="http://www.w3.org/2000/svg">
<path fill-rule="evenodd" clip-rule="evenodd" d="M0 21.9969V0.00305511H9.03038C10.4861 -0.031742 11.9332 0.231036 13.2797 0.774672C14.6262 1.31831 15.8426 2.1309 16.8516 3.16075C17.8857 4.19322 18.6971 5.4195 19.2374 6.76639C19.7776 8.11327 20.0357 9.55313 19.996 11C20.0357 12.4469 19.7776 13.8867 19.2374 15.2336C18.6971 16.5805 17.8857 17.8068 16.8516 18.8392C15.8427 19.8692 14.6263 20.6818 13.2798 21.2255C11.9332 21.7691 10.4861 22.0318 9.03038 21.9969H0ZM5 16.9972V5.00282H8.97819C9.77014 4.97274 10.5599 5.18677 11.2971 5.46452C12.0342 5.74226 12.7024 6.16371 13.259 6.7019C13.8177 7.27826 14.2505 7.95503 14.5319 8.69267C14.8134 9.43032 15.0351 10.2141 14.9954 10.9981C15.0351 11.7822 14.8134 12.5659 14.532 13.3036C14.2505 14.0412 13.8178 14.718 13.259 15.2943C12.7025 15.8326 12.0343 16.2542 11.2972 16.5319C10.56 16.8097 9.77015 17.0274 8.97819 16.9972H5.16606H5Z" fill="black"/>
</svg>
